<mxfile host="app.diagrams.net" modified="2024-04-18T10:44:39.843Z" agent="Mozilla/5.0 (Windows NT 10.0; Win64; x64) AppleWebKit/537.36 (KHTML, like Gecko) Chrome/123.0.0.0 Safari/537.36" etag="draMdwtHWvtw-UbrnaJR" version="24.2.5" type="device">
  <diagram id="C5RBs43oDa-KdzZeNtuy" name="Page-1">
    <mxGraphModel dx="1432" dy="820" grid="1" gridSize="10" guides="1" tooltips="1" connect="1" arrows="1" fold="1" page="1" pageScale="1" pageWidth="1169" pageHeight="827" background="#ffffff" math="0" shadow="0">
      <root>
        <mxCell id="WIyWlLk6GJQsqaUBKTNV-0" />
        <mxCell id="WIyWlLk6GJQsqaUBKTNV-1" parent="WIyWlLk6GJQsqaUBKTNV-0" />
        <mxCell id="P5VJyGJe0uOx0hKL7iMc-13" value="&lt;font color=&quot;#007fff&quot; style=&quot;font-size: 20px;&quot;&gt;&lt;b&gt;&lt;i&gt;ThreadPoolExecutor&lt;/i&gt;&lt;/b&gt;&lt;/font&gt;" style="rounded=0;whiteSpace=wrap;html=1;dashed=1;fillColor=#dae8fc;strokeColor=#007FFF;opacity=50;verticalAlign=top;arcSize=20;" parent="WIyWlLk6GJQsqaUBKTNV-1" vertex="1">
          <mxGeometry x="240" y="194" width="580" height="360" as="geometry" />
        </mxCell>
        <mxCell id="P5VJyGJe0uOx0hKL7iMc-4" style="edgeStyle=orthogonalEdgeStyle;rounded=0;orthogonalLoop=1;jettySize=auto;html=1;exitX=1;exitY=0.5;exitDx=0;exitDy=0;entryX=0;entryY=0.5;entryDx=0;entryDy=0;arcSize=20;" parent="WIyWlLk6GJQsqaUBKTNV-1" source="P5VJyGJe0uOx0hKL7iMc-1" target="P5VJyGJe0uOx0hKL7iMc-3" edge="1">
          <mxGeometry relative="1" as="geometry" />
        </mxCell>
        <mxCell id="P5VJyGJe0uOx0hKL7iMc-5" value="&lt;font color=&quot;#00cc00&quot; style=&quot;font-size: 15px;&quot;&gt;submit&lt;/font&gt;" style="edgeLabel;html=1;align=center;verticalAlign=middle;resizable=0;points=[];arcSize=20;labelBorderColor=#00CC00;" parent="P5VJyGJe0uOx0hKL7iMc-4" vertex="1" connectable="0">
          <mxGeometry x="-0.0241" relative="1" as="geometry">
            <mxPoint as="offset" />
          </mxGeometry>
        </mxCell>
        <mxCell id="P5VJyGJe0uOx0hKL7iMc-1" value="&lt;font style=&quot;font-size: 20px;&quot;&gt;task&lt;/font&gt;" style="rounded=1;whiteSpace=wrap;html=1;arcSize=20;" parent="WIyWlLk6GJQsqaUBKTNV-1" vertex="1">
          <mxGeometry x="60" y="370.25" width="100" height="40" as="geometry" />
        </mxCell>
        <mxCell id="P5VJyGJe0uOx0hKL7iMc-11" style="edgeStyle=orthogonalEdgeStyle;rounded=0;orthogonalLoop=1;jettySize=auto;html=1;entryX=0;entryY=0.5;entryDx=0;entryDy=0;arcSize=20;labelBackgroundColor=#CCCCCC;labelBorderColor=#00CC00;" parent="WIyWlLk6GJQsqaUBKTNV-1" source="P5VJyGJe0uOx0hKL7iMc-3" target="P5VJyGJe0uOx0hKL7iMc-10" edge="1">
          <mxGeometry relative="1" as="geometry" />
        </mxCell>
        <mxCell id="P5VJyGJe0uOx0hKL7iMc-12" value="&lt;font color=&quot;#00cc00&quot; style=&quot;font-size: 15px;&quot;&gt;put&lt;/font&gt;" style="edgeLabel;html=1;align=center;verticalAlign=middle;resizable=0;points=[];arcSize=20;textShadow=0;labelBorderColor=#00CC00;" parent="P5VJyGJe0uOx0hKL7iMc-11" vertex="1" connectable="0">
          <mxGeometry x="0.1253" y="-1" relative="1" as="geometry">
            <mxPoint as="offset" />
          </mxGeometry>
        </mxCell>
        <mxCell id="P5VJyGJe0uOx0hKL7iMc-3" value="&lt;div style=&quot;font-family: Consolas, &amp;quot;Courier New&amp;quot;, monospace; font-size: 18px; line-height: 24px; white-space: pre;&quot;&gt;&lt;i&gt;_WorkItem&lt;/i&gt;&lt;/div&gt;" style="rounded=1;whiteSpace=wrap;html=1;labelBackgroundColor=none;labelPosition=center;verticalLabelPosition=top;align=center;verticalAlign=bottom;arcSize=20;" parent="WIyWlLk6GJQsqaUBKTNV-1" vertex="1">
          <mxGeometry x="310" y="266.5" width="200" height="247.5" as="geometry" />
        </mxCell>
        <mxCell id="P5VJyGJe0uOx0hKL7iMc-6" value="&lt;font style=&quot;font-size: 18px;&quot;&gt;fn(任务函数）&lt;/font&gt;" style="rounded=1;whiteSpace=wrap;html=1;arcSize=20;" parent="WIyWlLk6GJQsqaUBKTNV-1" vertex="1">
          <mxGeometry x="340" y="365.25" width="140" height="37.5" as="geometry" />
        </mxCell>
        <mxCell id="P5VJyGJe0uOx0hKL7iMc-8" value="&lt;font style=&quot;font-size: 18px;&quot;&gt;f(Future对象)&lt;/font&gt;" style="rounded=1;whiteSpace=wrap;html=1;arcSize=20;" parent="WIyWlLk6GJQsqaUBKTNV-1" vertex="1">
          <mxGeometry x="340" y="304" width="140" height="37.5" as="geometry" />
        </mxCell>
        <mxCell id="P5VJyGJe0uOx0hKL7iMc-9" value="&lt;font style=&quot;font-size: 18px;&quot;&gt;args, kwargs&lt;/font&gt;&lt;div&gt;&lt;font style=&quot;font-size: 18px;&quot;&gt;(运行参数)&lt;/font&gt;&lt;/div&gt;" style="rounded=1;whiteSpace=wrap;html=1;arcSize=20;" parent="WIyWlLk6GJQsqaUBKTNV-1" vertex="1">
          <mxGeometry x="340" y="424" width="140" height="45" as="geometry" />
        </mxCell>
        <mxCell id="P5VJyGJe0uOx0hKL7iMc-15" style="edgeStyle=orthogonalEdgeStyle;rounded=0;orthogonalLoop=1;jettySize=auto;html=1;exitX=1;exitY=0.5;exitDx=0;exitDy=0;arcSize=20;labelBorderColor=#00CC00;entryX=0;entryY=0.5;entryDx=0;entryDy=0;" parent="WIyWlLk6GJQsqaUBKTNV-1" source="P5VJyGJe0uOx0hKL7iMc-10" target="P5VJyGJe0uOx0hKL7iMc-17" edge="1">
          <mxGeometry relative="1" as="geometry" />
        </mxCell>
        <mxCell id="P5VJyGJe0uOx0hKL7iMc-16" value="&lt;font color=&quot;#00cc00&quot; style=&quot;font-size: 15px;&quot;&gt;get&lt;/font&gt;" style="edgeLabel;html=1;align=center;verticalAlign=middle;resizable=0;points=[];arcSize=20;labelBorderColor=#00CC00;" parent="P5VJyGJe0uOx0hKL7iMc-15" vertex="1" connectable="0">
          <mxGeometry x="-0.1098" y="-1" relative="1" as="geometry">
            <mxPoint as="offset" />
          </mxGeometry>
        </mxCell>
        <mxCell id="P5VJyGJe0uOx0hKL7iMc-10" value="&lt;font style=&quot;font-size: 18px;&quot;&gt;_work_queue&lt;/font&gt;&lt;div&gt;&lt;font style=&quot;font-size: 18px;&quot;&gt;&amp;nbsp; (工作队列）&lt;/font&gt;&lt;/div&gt;" style="rounded=1;whiteSpace=wrap;html=1;arcSize=20;" parent="WIyWlLk6GJQsqaUBKTNV-1" vertex="1">
          <mxGeometry x="620" y="360.25" width="150" height="53.75" as="geometry" />
        </mxCell>
        <mxCell id="P5VJyGJe0uOx0hKL7iMc-14" value="&lt;font color=&quot;#007fff&quot; style=&quot;font-size: 18px;&quot;&gt;&lt;b&gt;&lt;i&gt;work_Thread&lt;/i&gt;&lt;/b&gt;&lt;/font&gt;" style="rounded=0;whiteSpace=wrap;html=1;dashed=1;fillColor=#dae8fc;strokeColor=#007FFF;opacity=50;verticalAlign=top;arcSize=20;" parent="WIyWlLk6GJQsqaUBKTNV-1" vertex="1">
          <mxGeometry x="910" y="194" width="170" height="360" as="geometry" />
        </mxCell>
        <mxCell id="P5VJyGJe0uOx0hKL7iMc-17" value="&lt;font style=&quot;font-size: 17px;&quot;&gt;&lt;i&gt;_worker&lt;/i&gt;&lt;/font&gt;" style="rounded=1;whiteSpace=wrap;html=1;gradientColor=none;fillColor=none;verticalAlign=bottom;arcSize=20;labelPosition=center;verticalLabelPosition=top;align=center;" parent="WIyWlLk6GJQsqaUBKTNV-1" vertex="1">
          <mxGeometry x="932.5" y="259" width="125" height="250" as="geometry" />
        </mxCell>
        <mxCell id="P5VJyGJe0uOx0hKL7iMc-23" style="edgeStyle=orthogonalEdgeStyle;rounded=0;orthogonalLoop=1;jettySize=auto;html=1;entryX=0.5;entryY=0;entryDx=0;entryDy=0;arcSize=20;" parent="WIyWlLk6GJQsqaUBKTNV-1" source="P5VJyGJe0uOx0hKL7iMc-18" target="P5VJyGJe0uOx0hKL7iMc-21" edge="1">
          <mxGeometry relative="1" as="geometry" />
        </mxCell>
        <mxCell id="P5VJyGJe0uOx0hKL7iMc-24" value="run" style="edgeLabel;html=1;align=center;verticalAlign=middle;resizable=0;points=[];arcSize=20;labelBorderColor=#00CC00;fontColor=#00CC00;fontSize=15;" parent="P5VJyGJe0uOx0hKL7iMc-23" vertex="1" connectable="0">
          <mxGeometry x="-0.0136" relative="1" as="geometry">
            <mxPoint as="offset" />
          </mxGeometry>
        </mxCell>
        <mxCell id="P5VJyGJe0uOx0hKL7iMc-18" value="_WorkItem" style="rounded=1;whiteSpace=wrap;html=1;arcSize=20;" parent="WIyWlLk6GJQsqaUBKTNV-1" vertex="1">
          <mxGeometry x="947.5" y="304" width="92.5" height="40" as="geometry" />
        </mxCell>
        <mxCell id="P5VJyGJe0uOx0hKL7iMc-27" style="edgeStyle=orthogonalEdgeStyle;rounded=0;orthogonalLoop=1;jettySize=auto;html=1;entryX=0.5;entryY=0;entryDx=0;entryDy=0;arcSize=20;" parent="WIyWlLk6GJQsqaUBKTNV-1" source="P5VJyGJe0uOx0hKL7iMc-21" target="P5VJyGJe0uOx0hKL7iMc-26" edge="1">
          <mxGeometry relative="1" as="geometry" />
        </mxCell>
        <mxCell id="P5VJyGJe0uOx0hKL7iMc-21" value="Future" style="rounded=1;whiteSpace=wrap;html=1;arcSize=20;" parent="WIyWlLk6GJQsqaUBKTNV-1" vertex="1">
          <mxGeometry x="949" y="414" width="91" height="40" as="geometry" />
        </mxCell>
        <mxCell id="P5VJyGJe0uOx0hKL7iMc-26" value="&lt;font style=&quot;font-size: 20px;&quot;&gt;result&lt;/font&gt;" style="rounded=1;whiteSpace=wrap;html=1;arcSize=20;" parent="WIyWlLk6GJQsqaUBKTNV-1" vertex="1">
          <mxGeometry x="937.5" y="584" width="115" height="50" as="geometry" />
        </mxCell>
        <mxCell id="P5VJyGJe0uOx0hKL7iMc-31" value="&lt;font size=&quot;1&quot; color=&quot;#007fff&quot; style=&quot;&quot;&gt;&lt;b style=&quot;&quot;&gt;&lt;i style=&quot;font-size: 25px;&quot;&gt;任务执行流程分析&lt;/i&gt;&lt;/b&gt;&lt;/font&gt;" style="text;html=1;align=center;verticalAlign=middle;resizable=0;points=[];autosize=1;strokeColor=none;fillColor=none;" parent="WIyWlLk6GJQsqaUBKTNV-1" vertex="1">
          <mxGeometry x="460" y="100" width="220" height="40" as="geometry" />
        </mxCell>
      </root>
    </mxGraphModel>
  </diagram>
</mxfile>
